<svg id="apple-logo" xmlns="http://www.w3.org/2000/svg" width="17.951" height="22.019" viewBox="0 0 17.951 22.019">
  <g id="Grupo_10641" data-name="Grupo 10641" transform="translate(0)">
    <path id="Trazado_7256" data-name="Trazado 7256" d="M15.622,0h.157a4.715,4.715,0,0,1-1.187,3.553,3.681,3.681,0,0,1-3.24,1.521A4.574,4.574,0,0,1,12.56,1.631,5.22,5.22,0,0,1,15.622,0Z" transform="translate(-2.41)"/>
    <path id="Trazado_7257" data-name="Trazado 7257" d="M20.055,16.344v.044a12.811,12.811,0,0,1-1.833,3.534c-.7.962-1.556,2.257-3.085,2.257-1.322,0-2.2-.85-3.554-.873-1.433-.023-2.221.711-3.531.9H7.6a3.99,3.99,0,0,1-2.3-1.588,13.909,13.909,0,0,1-3.2-8v-.985a6.453,6.453,0,0,1,2.818-5.3,4.758,4.758,0,0,1,3.195-.74,8.036,8.036,0,0,1,1.565.449,4.323,4.323,0,0,0,1.564.469,3.755,3.755,0,0,0,1.1-.336,6.752,6.752,0,0,1,3.531-.627,4.9,4.9,0,0,1,3.6,2.146,4.619,4.619,0,0,0-2.347,4.583A4.731,4.731,0,0,0,20.055,16.344Z" transform="translate(-2.104 -0.182)"/>
  </g>
</svg>
