<svg xmlns="http://www.w3.org/2000/svg" xmlns:xlink="http://www.w3.org/1999/xlink" width="40.322" height="46.802" viewBox="0 0 40.322 46.802">
  <defs>
    <clipPath id="clip-path">
      <path id="SVGID" d="M1988.667,1230.235H1973.7c-3.208.6-2.4,3.978-2.4,3.978h19.766S1991.875,1230.831,1988.667,1230.235Z" transform="translate(-1971.21 -1230.235)" fill="none"/>
    </clipPath>
  </defs>
  <g id="Grupo_10645" data-name="Grupo 10645" transform="translate(-1040.839 -705.002)">
    <path id="Trazado_7265" data-name="Trazado 7265" d="M1943.17,1173.955c-8.591,0-16.606,6.247-16.606,17.088,0,10.8,8.015,17.052,16.606,17.052s16.607-6.247,16.607-17.052C1959.777,1180.2,1951.762,1173.955,1943.17,1173.955Z" transform="translate(-885.725 -456.291)" fill="#1f72ea" style="mix-blend-mode: normal;isolation: isolate"/>
    <g id="Grupo_10643" data-name="Grupo 10643" transform="translate(1047.462 724.453)">
      <path id="Trazado_160" data-name="Trazado 160" d="M1980.971,1278.409q-3.4,0-6.806,0a4.027,4.027,0,0,1-1.171-.124,2.663,2.663,0,0,1-1.932-2.412c-.015-.2-.01-.4-.01-.606q0-4.852,0-9.7c0-.236,0-.472.016-.707a.277.277,0,0,1,.243-.271,4.318,4.318,0,0,1,.589-.034q9.124,0,18.247,0c.1,0,.2,0,.3,0,.492.024.549.072.55.607q.008,4.6,0,9.2c0,.438.012.876,0,1.314a2.689,2.689,0,0,1-2.526,2.722c-.261.024-.526.013-.788.013Z" transform="translate(-1971.05 -1257.852)" fill="#fff"/>
      <rect id="Rectángulo_7" data-name="Rectángulo 7" width="1.191" height="4.144" rx="0.595" transform="translate(4.468 0)" fill="#fff"/>
      <rect id="Rectángulo_8" data-name="Rectángulo 8" width="1.191" height="4.144" rx="0.595" transform="translate(9.595 0)" fill="#fff"/>
      <rect id="Rectángulo_9" data-name="Rectángulo 9" width="1.191" height="4.144" rx="0.595" transform="translate(14.793 0)" fill="#fff"/>
      <path id="Trazado_161" data-name="Trazado 161" d="M1988.667,1230.235H1973.7c-3.208.6-2.4,3.978-2.4,3.978h19.766S1991.875,1230.831,1988.667,1230.235Z" transform="translate(-1971.186 -1228.646)" fill="#fff"/>
      <rect id="Rectángulo_10" data-name="Rectángulo 10" width="4.032" height="4.032" rx="2" transform="translate(1.692 8.751)" fill="#1f72ea" style="mix-blend-mode: normal;isolation: isolate"/>
      <rect id="Rectángulo_11" data-name="Rectángulo 11" width="4.032" height="4.032" rx="2" transform="translate(8.046 8.751)" fill="#1f72ea" style="mix-blend-mode: normal;isolation: isolate"/>
      <rect id="Rectángulo_12" data-name="Rectángulo 12" width="4.032" height="4.032" rx="2" transform="translate(14.359 8.751)" fill="#1f72ea" style="mix-blend-mode: normal;isolation: isolate"/>
      <rect id="Rectángulo_13" data-name="Rectángulo 13" width="4.032" height="4.032" rx="2" transform="translate(1.692 14.455)" fill="#1f72ea" style="mix-blend-mode: normal;isolation: isolate"/>
      <rect id="Rectángulo_14" data-name="Rectángulo 14" width="4.032" height="4.032" rx="2" transform="translate(8.046 14.455)" fill="#1f72ea" style="mix-blend-mode: normal;isolation: isolate"/>
      <rect id="Rectángulo_15" data-name="Rectángulo 15" width="4.032" height="4.032" rx="2" transform="translate(14.359 14.455)" fill="#1f72ea" style="mix-blend-mode: normal;isolation: isolate"/>
      <g id="Grupo_62" data-name="Grupo 62" transform="translate(0.024 1.589)">
        <g id="Grupo_61" data-name="Grupo 61" clip-path="url(#clip-path)">
          <rect id="Rectángulo_16" data-name="Rectángulo 16" width="1.191" height="4.144" rx="0.595" transform="translate(4.445 -1.589)" fill="#1f72ea" style="mix-blend-mode: normal;isolation: isolate"/>
          <rect id="Rectángulo_17" data-name="Rectángulo 17" width="1.191" height="4.144" rx="0.595" transform="translate(9.571 -1.589)" fill="#1f72ea" style="mix-blend-mode: normal;isolation: isolate"/>
          <rect id="Rectángulo_18" data-name="Rectángulo 18" width="1.191" height="4.144" rx="0.595" transform="translate(14.769 -1.589)" fill="#1f72ea" style="mix-blend-mode: normal;isolation: isolate"/>
        </g>
      </g>
    </g>
    <g id="Grupo_10644" data-name="Grupo 10644" transform="translate(1056.853 705.002)">
      <path id="Trazado_162" data-name="Trazado 162" d="M2056.051,1108.649l-5.083.892-.919-5.238a1,1,0,1,0-1.979.347l1,5.7c-.471.634-2.8,3.815-14.762,20.155a1.042,1.042,0,0,0,.208,1.426.992.992,0,0,0,1.412-.2l14.658-20.037,5.82-1.021a1.024,1.024,0,0,0-.354-2.016Z" transform="translate(-2034.114 -1101.289)" fill="#ec1c24" style="mix-blend-mode: normal;isolation: isolate"/>
      <path id="Trazado_163" data-name="Trazado 163" d="M2153.5,1093.961a.839.839,0,0,0-.963-.69l-4.277.751-.773-4.406a.83.83,0,1,0-1.634.287l1.02,5.809a.267.267,0,0,0,.308.217l5.648-.992A.839.839,0,0,0,2153.5,1093.961Z" transform="translate(-2129.207 -1088.914)" fill="#ec1c24" style="mix-blend-mode: normal;isolation: isolate"/>
    </g>
  </g>
</svg>
