<svg xmlns="http://www.w3.org/2000/svg" width="21.649" height="21.649" viewBox="0 0 21.649 21.649">
  <g id="download-circular-button" transform="translate(0.001)">
    <g id="_x37__43_" transform="translate(-0.001)">
      <g id="Grupo_10480" data-name="Grupo 10480">
        <path id="Trazado_7162" data-name="Trazado 7162" d="M14.289,10.462,11.5,13.25V6.089a.677.677,0,1,0-1.353,0V13.25L7.36,10.463a.676.676,0,0,0-.957.957l3.827,3.827a.663.663,0,0,0,.595.175.666.666,0,0,0,.595-.175l3.827-3.827a.677.677,0,0,0-.958-.957ZM10.824,0A10.824,10.824,0,1,0,21.649,10.824,10.824,10.824,0,0,0,10.824,0Zm0,20.3A9.471,9.471,0,1,1,20.3,10.824,9.471,9.471,0,0,1,10.824,20.3Z" fill="#7a7a7a"/>
      </g>
    </g>
  </g>
</svg>
