<svg xmlns="http://www.w3.org/2000/svg" width="26.224" height="23.062" viewBox="0 0 26.224 23.062">
  <g id="email" transform="translate(0 -30.872)">
    <path id="Trazado_224" data-name="Trazado 224" d="M330.991,80.24l8.962,7.856a2.8,2.8,0,0,0,.309-1.28V73.294a2.811,2.811,0,0,0-.083-.679Z" transform="translate(-314.038 -39.605)" fill="#495057"/>
    <path id="Trazado_225" data-name="Trazado 225" d="M9.273,80.178.084,72.552A2.811,2.811,0,0,0,0,73.234V86.756a2.8,2.8,0,0,0,.309,1.28Z" transform="translate(0 -39.545)" fill="#495057"/>
    <path id="Trazado_226" data-name="Trazado 226" d="M40.85,240.846l-.731.607a2.992,2.992,0,0,1-3.819,0l-.734-.609-9.116,7.991a2.8,2.8,0,0,0,1.462.41h6.634a.257.257,0,0,1,.206.1l2.42,3.281a1.269,1.269,0,0,0,1.025.52H38.2a1.269,1.269,0,0,0,1.023-.511l2.475-3.293a.257.257,0,0,1,.2-.1h6.6a2.8,2.8,0,0,0,1.462-.41Z" transform="translate(-25.094 -199.217)" fill="#495057"/>
    <path id="Trazado_227" data-name="Trazado 227" d="M28.237,41.053a1.455,1.455,0,0,0,1.857,0l11.317-9.392a2.807,2.807,0,0,0-1.953-.789H18.868a2.807,2.807,0,0,0-1.951.787Z" transform="translate(-16.051 0)" fill="#495057"/>
  </g>
</svg>
