<svg xmlns="http://www.w3.org/2000/svg" width="72.938" height="60.66" viewBox="0 0 72.938 60.66">
  <g id="Grupo_10660" data-name="Grupo 10660" transform="translate(-1026.17 -440.846)">
    <path id="email" d="M30.33,60.66A30.33,30.33,0,1,1,60.66,30.33,30.364,30.364,0,0,1,30.33,60.66ZM46.059,40.985a.679.679,0,0,0,.678-.678V21.265L31.306,33.52a1.569,1.569,0,0,1-1.951,0L13.923,21.265V40.307a.679.679,0,0,0,.678.678ZM43.694,19.675,30.33,30.288,16.966,19.675Zm6.181.678V40.307a3.82,3.82,0,0,1-3.816,3.816H14.6a3.82,3.82,0,0,1-3.816-3.816V20.354A3.82,3.82,0,0,1,14.6,16.538H46.059A3.82,3.82,0,0,1,49.875,20.354Z" transform="translate(1026.17 440.846)" fill="#495057" fill-rule="evenodd"/>
    <g id="check" transform="translate(1077.278 440.846)">
      <g id="Grupo_10602" data-name="Grupo 10602">
        <path id="Trazado_228" data-name="Trazado 228" d="M10.915,0A10.915,10.915,0,1,0,21.83,10.915,10.957,10.957,0,0,0,10.915,0ZM9.594,15.879,4.814,11.1,6.623,9.291l3.055,3.055L15.81,6.771l1.721,1.892Z" fill="#25c525"/>
      </g>
    </g>
  </g>
</svg>
