<svg id="google" xmlns="http://www.w3.org/2000/svg" width="17.951" height="17.951" viewBox="0 0 17.951 17.951">
  <path id="Trazado_7259" data-name="Trazado 7259" d="M275.039,211.479h-7.322a.585.585,0,0,0-.585.585V214.4a.585.585,0,0,0,.585.585h4.123a5.5,5.5,0,0,1-2.369,2.777l1.758,3.044a8.8,8.8,0,0,0,4.488-7.7,5.932,5.932,0,0,0-.1-1.149A.588.588,0,0,0,275.039,211.479Z" transform="translate(-257.765 -204.064)" fill="#167ee6"/>
  <path id="Trazado_7260" data-name="Trazado 7260" d="M42.18,336.581a5.462,5.462,0,0,1-4.726-2.734L34.411,335.6a8.969,8.969,0,0,0,12.257,3.29v0l-1.758-3.044A5.423,5.423,0,0,1,42.18,336.581Z" transform="translate(-33.205 -322.142)" fill="#12b347"/>
  <path id="Trazado_7261" data-name="Trazado 7261" d="M260.488,393.827v0l-1.758-3.044a5.423,5.423,0,0,1-2.73.738v3.512A8.961,8.961,0,0,0,260.488,393.827Z" transform="translate(-247.024 -377.078)" fill="#0f993e"/>
  <path id="Trazado_7262" data-name="Trazado 7262" d="M3.512,132.6a5.423,5.423,0,0,1,.738-2.729l-3.044-1.754a8.934,8.934,0,0,0,0,8.967l3.044-1.754A5.423,5.423,0,0,1,3.512,132.6Z" transform="translate(0 -123.627)" fill="#ffd500"/>
  <path id="Trazado_7263" data-name="Trazado 7263" d="M42.18,3.512a5.438,5.438,0,0,1,3.469,1.245.583.583,0,0,0,.785-.035l1.657-1.657a.59.59,0,0,0-.034-.863,8.956,8.956,0,0,0-13.646,2.29l3.044,1.754A5.462,5.462,0,0,1,42.18,3.512Z" transform="translate(-33.205)" fill="#ff4b26"/>
  <path id="Trazado_7264" data-name="Trazado 7264" d="M259.469,4.758a.583.583,0,0,0,.785-.035l1.657-1.657a.59.59,0,0,0-.034-.863A8.949,8.949,0,0,0,256,0V3.512A5.438,5.438,0,0,1,259.469,4.758Z" transform="translate(-247.024)" fill="#d93f21"/>
</svg>
