<svg xmlns="http://www.w3.org/2000/svg" width="54" height="54" viewBox="0 0 54 54">
  <g id="Grupo_10630" data-name="Grupo 10630" transform="translate(-813 -454)">
    <circle id="Elipse_38" data-name="Elipse 38" cx="27" cy="27" r="27" transform="translate(813 454)" fill="#ccc"/>
    <path id="Icon_awesome-store-alt" data-name="Icon awesome-store-alt" d="M11.743,14.089H4.7V8.219H2.35v9.393a1.173,1.173,0,0,0,1.174,1.174h9.393a1.173,1.173,0,0,0,1.174-1.174V8.219H11.743ZM23.285,5.217l-3.13-4.7A1.181,1.181,0,0,0,19.176,0H4.309a1.169,1.169,0,0,0-.976.521L.2,5.217a1.174,1.174,0,0,0,.976,1.827h21.13A1.176,1.176,0,0,0,23.285,5.217ZM18.787,18.2a.589.589,0,0,0,.587.587h1.174a.589.589,0,0,0,.587-.587V8.219H18.787Z" transform="translate(828.256 471.607)" fill="#7a7a7a"/>
  </g>
</svg>
