<svg xmlns="http://www.w3.org/2000/svg" width="33.323" height="33.323" viewBox="0 0 33.323 33.323">
  <path id="messenger" d="M16.154,0A16.156,16.156,0,0,0,2.142,24.2L.061,30.66a1.262,1.262,0,0,0,1.588,1.588l6.464-2.081A16.155,16.155,0,1,0,16.154,0Zm0,29.784A13.591,13.591,0,0,1,8.94,27.719a1.263,1.263,0,0,0-1.056-.131l-4.666,1.5,1.5-4.666a1.263,1.263,0,0,0-.131-1.056,13.631,13.631,0,1,1,11.565,6.416Zm1.578-13.63a1.578,1.578,0,1,1-1.578-1.578A1.578,1.578,0,0,1,17.732,16.154Zm6.31,0a1.578,1.578,0,1,1-1.578-1.578A1.578,1.578,0,0,1,24.042,16.154Zm-12.621,0a1.578,1.578,0,1,1-1.578-1.578A1.578,1.578,0,0,1,11.422,16.154Zm0,0" transform="translate(0.515 0.5)" fill="#1f72ea" stroke="#1f72ea" stroke-width="1"/>
</svg>
