<svg xmlns="http://www.w3.org/2000/svg" width="19.952" height="21.155" viewBox="0 0 19.952 21.155">
  <g id="pdf" transform="translate(-14.619 0.15)">
    <g id="Grupo_10486" data-name="Grupo 10486" transform="translate(14.769)">
      <g id="Grupo_10485" data-name="Grupo 10485">
        <path id="Trazado_7169" data-name="Trazado 7169" d="M34.308,5.644,29,.123A.4.4,0,0,0,28.706,0H20.788a1.609,1.609,0,0,0-1.607,1.607V7.219H15.971a1.2,1.2,0,0,0-1.2,1.2v6.018a1.2,1.2,0,0,0,1.2,1.2h3.209v3.61a1.607,1.607,0,0,0,1.607,1.6H32.813a1.607,1.607,0,0,0,1.607-1.6V5.922A.4.4,0,0,0,34.308,5.644Zm-5.5-4.561,4.362,4.532H28.806ZM15.971,14.839a.4.4,0,0,1-.4-.4V8.421a.4.4,0,0,1,.4-.4H26.8a.4.4,0,0,1,.4.4v6.018a.4.4,0,0,1-.4.4Zm17.647,4.413a.8.8,0,0,1-.805.8H20.788a.8.8,0,0,1-.805-.8v-3.61H26.8a1.2,1.2,0,0,0,1.2-1.2V8.421a1.2,1.2,0,0,0-1.2-1.2H19.983V1.607a.806.806,0,0,1,.805-.8H28V6.016a.4.4,0,0,0,.4.4h5.214Z" transform="translate(-14.769)" fill="#7a7a7a"/>
        <path id="Trazado_7169_-_Contorno" data-name="Trazado 7169 - Contorno" d="M20.788-.15h7.919a.554.554,0,0,1,.4.169L34.417,5.54a.549.549,0,0,1,.154.382v13.33A1.757,1.757,0,0,1,32.813,21H20.788a1.757,1.757,0,0,1-1.757-1.754v-3.46H15.971a1.354,1.354,0,0,1-1.352-1.352V8.421a1.354,1.354,0,0,1,1.352-1.352h3.059V1.607A1.759,1.759,0,0,1,20.788-.15ZM32.813,20.7a1.457,1.457,0,0,0,1.457-1.453V5.922a.25.25,0,0,0-.07-.174L28.887.227A.252.252,0,0,0,28.706.15H20.788a1.459,1.459,0,0,0-1.457,1.457V7.369H15.971a1.053,1.053,0,0,0-1.052,1.052v6.018a1.053,1.053,0,0,0,1.052,1.052h3.359v3.76A1.457,1.457,0,0,0,20.788,20.7ZM20.788.652h7.366V6.016a.251.251,0,0,0,.251.251h5.364V19.252a.954.954,0,0,1-.955.951H20.788a.954.954,0,0,1-.955-.952v-3.76H26.8a1.053,1.053,0,0,0,1.052-1.052V8.421A1.053,1.053,0,0,0,26.8,7.369H19.833V1.607A.956.956,0,0,1,20.788.652Zm7.066.3H20.788a.656.656,0,0,0-.655.654V7.069H26.8a1.354,1.354,0,0,1,1.352,1.352v6.018A1.354,1.354,0,0,1,26.8,15.791H20.133v3.46a.654.654,0,0,0,.655.652H32.813a.654.654,0,0,0,.655-.651V6.567H28.4a.552.552,0,0,1-.551-.551Zm.8-.242L33.52,5.765H28.656Zm4.159,4.754-3.859-4.01v4.01ZM15.971,7.871H26.8a.551.551,0,0,1,.55.55v6.018a.551.551,0,0,1-.55.55H15.971a.551.551,0,0,1-.55-.55V8.421A.551.551,0,0,1,15.971,7.871ZM26.8,14.689a.25.25,0,0,0,.25-.25V8.421a.25.25,0,0,0-.25-.25H15.971a.25.25,0,0,0-.25.25v6.018a.25.25,0,0,0,.25.25Z" transform="translate(-14.769)" fill="#7a7a7a"/>
      </g>
    </g>
    <g id="Grupo_10488" data-name="Grupo 10488" transform="translate(17.124 9.79)">
      <g id="Grupo_10487" data-name="Grupo 10487">
        <path id="Trazado_7170" data-name="Trazado 7170" d="M75.035,240.735a.9.9,0,0,0-.5-.337,4.049,4.049,0,0,0-.827-.052H72.6v3.445h.7v-1.3h.454a3.967,3.967,0,0,0,.721-.049,1.007,1.007,0,0,0,.361-.163.945.945,0,0,0,.293-.34,1.124,1.124,0,0,0,.115-.533A1.07,1.07,0,0,0,75.035,240.735Zm-.6.948a.457.457,0,0,1-.217.169,1.8,1.8,0,0,1-.55.054h-.381v-.978h.336a3.34,3.34,0,0,1,.5.023.481.481,0,0,1,.28.153.445.445,0,0,1,.11.31A.463.463,0,0,1,74.44,241.683Z" transform="translate(-72.596 -240.346)" fill="#7a7a7a"/>
        <path id="Trazado_7170_-_Contorno" data-name="Trazado 7170 - Contorno" d="M72.446,240.2h1.266a4.087,4.087,0,0,1,.866.057,1.053,1.053,0,0,1,.576.391,1.22,1.22,0,0,1,.231.762,1.275,1.275,0,0,1-.133.6,1.1,1.1,0,0,1-.339.392,1.161,1.161,0,0,1-.414.187,4.06,4.06,0,0,1-.753.053h-.3v1.3h-1Zm1.3,2.145a3.851,3.851,0,0,0,.692-.047.862.862,0,0,0,.3-.139.8.8,0,0,0,.246-.287.983.983,0,0,0,.1-.463.929.929,0,0,0-.169-.579.751.751,0,0,0-.415-.284,3.741,3.741,0,0,0-.789-.047h-.966v3.145h.4v-1.3Zm-.6-1.563h.486a3.348,3.348,0,0,1,.528.026.629.629,0,0,1,.363.2.592.592,0,0,1,.149.411.612.612,0,0,1-.1.353.606.606,0,0,1-.287.224,1.857,1.857,0,0,1-.6.064h-.531Zm.531.978a1.6,1.6,0,0,0,.5-.044.307.307,0,0,0,.148-.114.314.314,0,0,0,.053-.183.3.3,0,0,0-.072-.21.332.332,0,0,0-.2-.106,3.07,3.07,0,0,0-.474-.021h-.186v.678Z" transform="translate(-72.596 -240.346)" fill="#7a7a7a"/>
      </g>
    </g>
    <g id="Grupo_10490" data-name="Grupo 10490" transform="translate(20.332 9.79)">
      <g id="Grupo_10489" data-name="Grupo 10489">
        <path id="Trazado_7171" data-name="Trazado 7171" d="M154.121,241.287a1.505,1.505,0,0,0-.329-.558,1.152,1.152,0,0,0-.519-.317,2.482,2.482,0,0,0-.656-.066h-1.271v3.445h1.309a2.1,2.1,0,0,0,.616-.073,1.222,1.222,0,0,0,.489-.275,1.519,1.519,0,0,0,.369-.609,2.264,2.264,0,0,0,.106-.733A2.542,2.542,0,0,0,154.121,241.287Zm-.677,1.415a.729.729,0,0,1-.182.332.642.642,0,0,1-.281.143,1.894,1.894,0,0,1-.421.033h-.519v-2.282h.313a3.151,3.151,0,0,1,.571.033.662.662,0,0,1,.322.162.788.788,0,0,1,.2.334,2.058,2.058,0,0,1,.07.613A2.248,2.248,0,0,1,153.444,242.7Z" transform="translate(-151.346 -240.346)" fill="#7a7a7a"/>
        <path id="Trazado_7171_-_Contorno" data-name="Trazado 7171 - Contorno" d="M151.2,240.2h1.421a2.594,2.594,0,0,1,.7.072,1.306,1.306,0,0,1,.586.358,1.661,1.661,0,0,1,.362.613,2.7,2.7,0,0,1,.121.863,2.422,2.422,0,0,1-.114.782,1.674,1.674,0,0,1-.406.668,1.375,1.375,0,0,1-.547.31,2.225,2.225,0,0,1-.661.08H151.2Zm1.459,3.445a1.972,1.972,0,0,0,.57-.066,1.081,1.081,0,0,0,.429-.239,1.379,1.379,0,0,0,.332-.55,2.127,2.127,0,0,0,.1-.684,2.409,2.409,0,0,0-.1-.766,1.364,1.364,0,0,0-.3-.5,1,1,0,0,0-.453-.277,2.359,2.359,0,0,0-.613-.06H151.5v3.145Zm-.763-2.862h.463a3.22,3.22,0,0,1,.6.037.811.811,0,0,1,.392.2.939.939,0,0,1,.237.4,2.176,2.176,0,0,1,.078.66,2.366,2.366,0,0,1-.077.675.863.863,0,0,1-.225.4.793.793,0,0,1-.345.178,2,2,0,0,1-.457.037h-.669Zm.669,2.282a1.705,1.705,0,0,0,.384-.028.491.491,0,0,0,.217-.109.579.579,0,0,0,.139-.265,2.117,2.117,0,0,0,.064-.587,1.93,1.93,0,0,0-.063-.566.646.646,0,0,0-.158-.272.511.511,0,0,0-.251-.125,2.89,2.89,0,0,0-.539-.029h-.163v1.982Z" transform="translate(-151.346 -240.346)" fill="#7a7a7a"/>
      </g>
    </g>
    <g id="Grupo_10492" data-name="Grupo 10492" transform="translate(23.815 9.79)">
      <g id="Grupo_10491" data-name="Grupo 10491">
        <path id="Trazado_7172" data-name="Trazado 7172" d="M239.208,240.929v-.583h-2.362v3.445h.7v-1.464h1.438v-.583h-1.438v-.815Z" transform="translate(-236.846 -240.346)" fill="#7a7a7a"/>
        <path id="Trazado_7172_-_Contorno" data-name="Trazado 7172 - Contorno" d="M236.7,240.2h2.662v.883h-1.666v.515h1.438v.883h-1.438v1.464h-1Zm2.362.3H237v3.145h.4v-1.464h1.438v-.283h-1.438v-1.115h1.666Z" transform="translate(-236.846 -240.346)" fill="#7a7a7a"/>
      </g>
    </g>
  </g>
</svg>
