<svg xmlns="http://www.w3.org/2000/svg" width="18.861" height="18.862" viewBox="0 0 18.861 18.862">
  <g id="layer1" transform="translate(-0.529 -280.597)">
    <path id="path33245" d="M9.962,280.6a4.4,4.4,0,1,0,4.4,4.4A4.406,4.406,0,0,0,9.962,280.6Zm0,1.255a.3.3,0,0,1,.314.314v.677a1.26,1.26,0,0,1,.942,1.213.314.314,0,1,1-.629,0,.627.627,0,1,0-.626.629,1.255,1.255,0,0,1,.313,2.471v.671a.314.314,0,1,1-.629,0v-.672a1.261,1.261,0,0,1-.943-1.213.315.315,0,0,1,.629,0,.628.628,0,1,0,.629-.629,1.255,1.255,0,0,1-.316-2.47v-.678a.3.3,0,0,1,.314-.314Zm7.971,6.666a1.488,1.488,0,0,0-1.054.436l-1.991,1.991a2.2,2.2,0,0,1-1.783,3.484H9.678a.314.314,0,1,1,0-.626h3.427a1.57,1.57,0,0,0,1.331-2.405,1.6,1.6,0,0,0-1.331-.74H6.5a3.586,3.586,0,0,0-2.7,1.31l4.365,4.365a1.382,1.382,0,0,1,.22-.018h5.344a3.125,3.125,0,0,0,2.623-1.46c.72-1.043,2.069-2.994,2.664-3.839a1.914,1.914,0,0,0,.369-1.025,1.388,1.388,0,0,0-.4-1.038,1.488,1.488,0,0,0-1.054-.436Zm-15.2,3.4a.311.311,0,0,0-.222.091L.622,293.892a.314.314,0,0,0,0,.446l5.031,5.029a.314.314,0,0,0,.443,0l1.886-1.887a.314.314,0,0,0,0-.443l-5.031-5.031a.313.313,0,0,0-.222-.091Z" fill="#7a7a7a"/>
  </g>
</svg>
