<svg xmlns="http://www.w3.org/2000/svg" width="21.851" height="18.489" viewBox="0 0 21.851 18.489">
  <g id="package" transform="translate(0 -36)">
    <path id="Trazado_17" data-name="Trazado 17" d="M0,141.269l7.888,4.516,2.049-2.571-8.305-4.385Z" transform="translate(0 -98.028)" fill="#fff"/>
    <path id="Trazado_18" data-name="Trazado 18" d="M254.7,139.569l2.057,2.581,7.9-4.524-1.654-2.61Z" transform="translate(-242.811 -94.392)" fill="#fff"/>
    <path id="Trazado_19" data-name="Trazado 19" d="M60.576,39.986l8.084,4.269,8.1-4.439L68.678,36Z" transform="translate(-57.748 0)" fill="#fff"/>
    <path id="Trazado_20" data-name="Trazado 20" d="M44.112,252.186l8.219,4.34v-7.679L50.6,251.021a.639.639,0,0,1-.818.156l-5.669-3.245Z" transform="translate(-42.052 -202.037)" fill="#fff"/>
    <path id="Trazado_21" data-name="Trazado 21" d="M247.542,248.846v7.659l8.219-4.513v-4.061l-5.669,3.245a.639.639,0,0,1-.818-.156Z" transform="translate(-235.984 -202.036)" fill="#fff"/>
  </g>
</svg>
