<svg xmlns="http://www.w3.org/2000/svg" width="17.289" height="16.521" viewBox="0 0 17.289 16.521">
  <path id="Vector" d="M17.09,6.429a.617.617,0,0,0-.3-.409L14.952,5c-.1-.2-.212-.389-.332-.576l.035-2.1a.617.617,0,0,0-.2-.467A8.575,8.575,0,0,0,11.281.031a.617.617,0,0,0-.506.059l-1.8,1.08c-.221-.011-.444-.011-.664,0L6.511.088A.618.618,0,0,0,6.005.029,8.577,8.577,0,0,0,2.836,1.862a.617.617,0,0,0-.2.467l.035,2.1c-.12.186-.231.379-.333.575L.5,6.022a.617.617,0,0,0-.3.409,8.575,8.575,0,0,0,0,3.661.617.617,0,0,0,.3.409l1.835,1.018c.1.2.212.389.332.576l-.035,2.1a.617.617,0,0,0,.2.467A8.575,8.575,0,0,0,6.008,16.49a.617.617,0,0,0,.506-.059l1.8-1.08c.221.011.444.011.664,0l1.8,1.08a.617.617,0,0,0,.506.059,8.577,8.577,0,0,0,3.169-1.833.617.617,0,0,0,.2-.467l-.035-2.1c.12-.186.231-.379.333-.575L16.789,10.5a.617.617,0,0,0,.3-.409,8.575,8.575,0,0,0,0-3.661ZM12.04,8.261a3.4,3.4,0,1,1-1-2.4,3.4,3.4,0,0,1,1,2.4Z" fill="#fff"/>
</svg>
