<svg xmlns="http://www.w3.org/2000/svg" width="21.881" height="21.881" viewBox="0 0 21.881 21.881">
  <g id="settings" transform="translate(0)">
    <g id="Grupo_10482" data-name="Grupo 10482" transform="translate(0 0)">
      <g id="Grupo_10481" data-name="Grupo 10481" transform="translate(0 0)">
        <path id="Trazado_7167" data-name="Trazado 7167" d="M20.025,168.118h-.6a.533.533,0,0,1-.5-.35c-.066-.173-.137-.343-.213-.51a.534.534,0,0,1,.108-.6l.424-.425a1.627,1.627,0,0,0,0-2.294l-1.529-1.53a1.627,1.627,0,0,0-2.295,0l-.424.424a.536.536,0,0,1-.6.108c-.168-.076-.337-.147-.511-.216a.532.532,0,0,1-.351-.5v-.6A1.624,1.624,0,0,0,11.907,160H9.742a1.624,1.624,0,0,0-1.624,1.624v.6a.533.533,0,0,1-.35.5c-.173.066-.343.137-.51.213a.535.535,0,0,1-.6-.108l-.425-.424a1.628,1.628,0,0,0-2.294,0l-1.529,1.534a1.627,1.627,0,0,0,0,2.295l.424.424a.534.534,0,0,1,.108.6c-.076.168-.147.337-.214.511a.532.532,0,0,1-.5.349h-.6A1.624,1.624,0,0,0,0,169.742v2.165a1.624,1.624,0,0,0,1.624,1.624h.6a.533.533,0,0,1,.5.35c.066.173.137.343.213.51a.534.534,0,0,1-.108.6l-.424.425a1.628,1.628,0,0,0,0,2.294l1.529,1.53a1.627,1.627,0,0,0,2.295,0l.424-.424a.536.536,0,0,1,.6-.108c.168.076.337.147.511.216a.532.532,0,0,1,.354.5v.6a1.624,1.624,0,0,0,1.624,1.624h2.165a1.624,1.624,0,0,0,1.624-1.624v-.6a.533.533,0,0,1,.35-.5c.173-.066.343-.137.51-.213a.535.535,0,0,1,.6.108l.425.424a1.628,1.628,0,0,0,2.294,0l1.529-1.529a1.627,1.627,0,0,0,0-2.295L18.819,175a.534.534,0,0,1-.108-.6c.076-.168.147-.337.216-.511a.532.532,0,0,1,.5-.351h.6a1.624,1.624,0,0,0,1.624-1.624v-2.165A1.624,1.624,0,0,0,20.025,168.118Zm.541,3.789a.541.541,0,0,1-.541.541h-.6a1.629,1.629,0,0,0-1.515,1.047q-.086.227-.186.448a1.629,1.629,0,0,0,.325,1.816l.423.424a.541.541,0,0,1,0,.765h0l-1.529,1.53a.541.541,0,0,1-.765,0l-.424-.424a1.627,1.627,0,0,0-1.816-.325c-.147.067-.3.129-.447.186a1.629,1.629,0,0,0-1.046,1.514v.6a.541.541,0,0,1-.541.541H9.742a.541.541,0,0,1-.541-.541v-.6a1.629,1.629,0,0,0-1.047-1.515q-.227-.086-.448-.186a1.629,1.629,0,0,0-1.816.325l-.424.423a.541.541,0,0,1-.765,0h0l-1.529-1.528a.541.541,0,0,1,0-.765l.424-.424a1.629,1.629,0,0,0,.325-1.816c-.067-.147-.129-.3-.186-.447a1.629,1.629,0,0,0-1.514-1.048h-.6a.541.541,0,0,1-.541-.541v-2.165a.541.541,0,0,1,.541-.541h.6a1.629,1.629,0,0,0,1.515-1.047q.086-.227.186-.448A1.629,1.629,0,0,0,3.6,165.89l-.425-.424a.541.541,0,0,1,0-.765h0l1.529-1.53a.541.541,0,0,1,.765,0l.424.424a1.627,1.627,0,0,0,1.816.325c.147-.067.3-.129.447-.186A1.628,1.628,0,0,0,9.2,162.219v-.6a.541.541,0,0,1,.541-.541h2.165a.541.541,0,0,1,.541.541v.6a1.629,1.629,0,0,0,1.047,1.515q.227.086.448.186a1.627,1.627,0,0,0,1.816-.325l.424-.423a.544.544,0,0,1,.766,0l1.529,1.529a.541.541,0,0,1,0,.765l-.424.424a1.629,1.629,0,0,0-.325,1.816c.067.147.129.3.186.447A1.629,1.629,0,0,0,19.43,169.2h.6a.541.541,0,0,1,.541.541v2.165Z" transform="translate(0.116 -159.884)" fill="#7a7a7a"/>
        <path id="Trazado_7167_-_Contorno" data-name="Trazado 7167 - Contorno" d="M9.608,159.75h2.165a1.742,1.742,0,0,1,1.74,1.74v.6a.417.417,0,0,0,.275.393h0c.193.077.361.148.516.219a.42.42,0,0,0,.474-.085l.424-.424a1.743,1.743,0,0,1,2.459,0l1.53,1.53a1.748,1.748,0,0,1,0,2.458l-.425.425a.419.419,0,0,0-.085.473c.078.171.151.345.216.518a.418.418,0,0,0,.392.275h.6a1.742,1.742,0,0,1,1.74,1.74v2.165a1.742,1.742,0,0,1-1.74,1.74h-.6a.418.418,0,0,0-.393.275v0c-.077.192-.148.361-.219.516a.419.419,0,0,0,.084.473l.424.425a1.748,1.748,0,0,1,0,2.459l-1.53,1.53a1.744,1.744,0,0,1-2.458,0l-.425-.425a.419.419,0,0,0-.473-.085c-.171.078-.345.15-.518.216a.418.418,0,0,0-.275.392v.6a1.742,1.742,0,0,1-1.74,1.74H9.608a1.742,1.742,0,0,1-1.74-1.74v-.6a.417.417,0,0,0-.277-.393l0,0c-.193-.077-.361-.148-.516-.219a.42.42,0,0,0-.474.085l-.424.424a1.744,1.744,0,0,1-2.459,0l-1.53-1.53a1.748,1.748,0,0,1,0-2.458l.425-.425a.419.419,0,0,0,.085-.473c-.078-.171-.151-.345-.216-.518a.418.418,0,0,0-.392-.275h-.6a1.742,1.742,0,0,1-1.74-1.74v-2.165a1.742,1.742,0,0,1,1.74-1.74h.6a.417.417,0,0,0,.39-.273c.068-.179.139-.348.217-.519a.419.419,0,0,0-.084-.473l-.424-.425a1.748,1.748,0,0,1,0-2.459l1.53-1.534a1.744,1.744,0,0,1,2.458,0l.425.425a.419.419,0,0,0,.473.085c.171-.078.345-.151.518-.216a.418.418,0,0,0,.275-.392v-.6A1.742,1.742,0,0,1,9.608,159.75Zm4.1,2.946a.65.65,0,0,1-.426-.611v-.595a1.509,1.509,0,0,0-1.508-1.508H9.608A1.509,1.509,0,0,0,8.1,161.49v.6a.651.651,0,0,1-.426.61c-.166.063-.336.134-.5.21a.651.651,0,0,1-.734-.132l-.425-.424a1.511,1.511,0,0,0-2.13,0l-1.529,1.534a1.515,1.515,0,0,0,0,2.131l.424.424a.651.651,0,0,1,.131.735c-.075.166-.145.331-.211.5a.65.65,0,0,1-.608.424h-.6a1.509,1.509,0,0,0-1.508,1.508v2.165a1.509,1.509,0,0,0,1.508,1.508h.6a.651.651,0,0,1,.61.426c.064.167.134.336.21.5a.651.651,0,0,1-.132.735l-.424.424a1.515,1.515,0,0,0,0,2.13l1.529,1.529a1.511,1.511,0,0,0,2.131,0l.424-.424a.652.652,0,0,1,.735-.132c.15.068.315.138.5.213a.649.649,0,0,1,.429.611v.6A1.509,1.509,0,0,0,9.608,181.4h2.165a1.509,1.509,0,0,0,1.508-1.508v-.6a.651.651,0,0,1,.426-.61c.167-.064.336-.134.5-.21a.651.651,0,0,1,.734.132l.425.424a1.512,1.512,0,0,0,2.13,0l1.529-1.529a1.515,1.515,0,0,0,0-2.131l-.424-.424a.651.651,0,0,1-.131-.735c.068-.15.138-.315.213-.5a.65.65,0,0,1,.609-.426h.6a1.509,1.509,0,0,0,1.508-1.508v-2.165a1.509,1.509,0,0,0-1.508-1.508h-.6a.651.651,0,0,1-.61-.426c-.064-.167-.134-.336-.21-.5a.651.651,0,0,1,.132-.735l.424-.424a1.515,1.515,0,0,0,0-2.13L17.5,162.354a1.511,1.511,0,0,0-2.131,0l-.424.424a.652.652,0,0,1-.735.132C14.06,162.841,13.9,162.771,13.707,162.7Zm-4.1-1.864h2.165a.658.658,0,0,1,.657.657v.6a1.522,1.522,0,0,0,.972,1.407c.153.058.306.121.454.189a1.51,1.51,0,0,0,1.687-.3l.423-.423a.661.661,0,0,1,.93,0l1.53,1.53a.658.658,0,0,1,0,.93L18,165.84a1.521,1.521,0,0,0-.3,1.686c.067.148.131.3.189.453a1.522,1.522,0,0,0,1.406.971h.595a.658.658,0,0,1,.657.657v2.165a.658.658,0,0,1-.657.657h-.6a1.522,1.522,0,0,0-1.407.972c-.058.153-.121.306-.189.454a1.521,1.521,0,0,0,.3,1.687l.423.423a.657.657,0,0,1,0,.93l0,0-1.528,1.528a.657.657,0,0,1-.93,0L15.541,178a1.511,1.511,0,0,0-1.686-.3c-.148.067-.3.131-.453.189a1.522,1.522,0,0,0-.971,1.406v.595a.658.658,0,0,1-.657.657H9.608a.658.658,0,0,1-.657-.657v-.6a1.522,1.522,0,0,0-.972-1.407c-.153-.058-.306-.122-.454-.189a1.513,1.513,0,0,0-1.687.3l-.423.423a.657.657,0,0,1-.93,0l0,0L2.955,176.9a.658.658,0,0,1,0-.93l.424-.424a1.521,1.521,0,0,0,.3-1.686c-.067-.148-.131-.3-.189-.453a1.522,1.522,0,0,0-1.406-.973H1.49a.658.658,0,0,1-.657-.657v-2.165a.658.658,0,0,1,.657-.657h.6a1.522,1.522,0,0,0,1.407-.972c.058-.153.121-.306.189-.454a1.521,1.521,0,0,0-.3-1.687l-.425-.423a.657.657,0,0,1,0-.93l1.53-1.53a.657.657,0,0,1,.929,0l.424.424a1.51,1.51,0,0,0,1.686.3c.148-.067.3-.131.453-.189a1.522,1.522,0,0,0,.974-1.406v-.595A.658.658,0,0,1,9.608,160.832Zm4.872,3.216a1.73,1.73,0,0,1-.72-.156c-.144-.065-.292-.127-.441-.183a1.756,1.756,0,0,1-1.122-1.624v-.6a.426.426,0,0,0-.425-.425H9.608a.426.426,0,0,0-.425.425v.6a1.756,1.756,0,0,1-1.123,1.623c-.148.057-.3.118-.44.183a1.743,1.743,0,0,1-1.946-.348l-.425-.424a.425.425,0,0,0-.6,0L3.117,164.65a.425.425,0,0,0,0,.6l.425.424a1.755,1.755,0,0,1,.349,1.947c-.065.144-.127.292-.183.441a1.756,1.756,0,0,1-1.624,1.122h-.6a.426.426,0,0,0-.425.425v2.165a.426.426,0,0,0,.425.425h.6a1.756,1.756,0,0,1,1.623,1.123c.057.148.118.3.183.44a1.755,1.755,0,0,1-.348,1.946l-.424.425a.426.426,0,0,0,0,.6l1.532,1.53a.425.425,0,0,0,.6,0l.424-.423a1.745,1.745,0,0,1,1.946-.348c.144.065.292.127.441.183A1.756,1.756,0,0,1,9.183,179.3v.6a.426.426,0,0,0,.425.425h2.165a.426.426,0,0,0,.425-.425v-.6a1.745,1.745,0,0,1,1.121-1.623c.149-.057.3-.118.44-.184a1.743,1.743,0,0,1,1.946.348l.425.424a.425.425,0,0,0,.6,0l1.532-1.532a.425.425,0,0,0,0-.6l-.423-.424a1.755,1.755,0,0,1-.348-1.946c.065-.144.127-.292.183-.441A1.756,1.756,0,0,1,19.3,172.2h.6a.426.426,0,0,0,.425-.425v-2.165a.426.426,0,0,0-.425-.425h-.6a1.745,1.745,0,0,1-1.623-1.121c-.057-.149-.118-.3-.183-.44a1.755,1.755,0,0,1,.348-1.946l.424-.425a.426.426,0,0,0,0-.6l-1.529-1.529a.428.428,0,0,0-.6,0l-.423.423A1.733,1.733,0,0,1,14.48,164.048Z" transform="translate(0.25 -159.75)" fill="#7a7a7a"/>
      </g>
    </g>
    <g id="Grupo_10484" data-name="Grupo 10484" transform="translate(6.067 6.07)">
      <g id="Grupo_10483" data-name="Grupo 10483">
        <path id="Trazado_7168" data-name="Trazado 7168" d="M97.692,252.655c-.005-.13-.015-.259-.03-.388s-.038-.276-.067-.411c-.019-.088-.044-.175-.068-.263q-.045-.167-.1-.33c-.027-.075-.054-.15-.082-.224a4.817,4.817,0,0,0-.239-.507c-.007-.012-.011-.026-.018-.038a4.8,4.8,0,0,0-.487-.71c-.016-.02-.034-.038-.05-.057-.075-.088-.152-.174-.232-.255-.042-.044-.087-.085-.131-.127s-.108-.1-.162-.148-.133-.112-.2-.166l-.089-.066a4.837,4.837,0,0,0-2.9-.966c-.054,0-.108.008-.162.01-.115,0-.231.01-.347.022-.061.007-.123.014-.184.022a4.965,4.965,0,0,0-.524.1,4.874,4.874,0,0,0,0,9.438.124.124,0,0,1,.027,0,5.168,5.168,0,0,0,.567.108c.126.016.252.019.379.025.084,0,.162.017.251.017.154,0,.314-.01.478-.026a.53.53,0,0,0,.054-.007c.132-.015.265-.034.4-.061.054-.01.1-.024.156-.036.1-.022.19-.045.287-.074.076-.023.149-.049.224-.075s.151-.054.228-.083.141-.063.211-.1c.091-.042.181-.083.271-.132h0a6.405,6.405,0,0,0,1.387-1,1.705,1.705,0,0,0,.29-.355,5.777,5.777,0,0,0,.815-2.224c.015-.1.029-.209.037-.316s.013-.2.015-.293c0-.031,0-.06,0-.091C97.7,252.8,97.7,252.728,97.692,252.655Zm-1.079.354c0,.045,0,.09-.006.134-.01.131-.027.262-.049.393a3.8,3.8,0,0,1-1.9,2.652c-.067.035-.133.068-.2.1l-.045.022a3.91,3.91,0,0,1-.987.3l-.073.011c-.068.01-.134.018-.2.024-.087.008-.175.012-.264.014h-.113a3.8,3.8,0,0,1-.383-.024l-.065-.008a4.013,4.013,0,0,1-.442-.083,3.789,3.789,0,0,1,0-7.34h0a3.92,3.92,0,0,1,.951-.119,3.743,3.743,0,0,1,.463.031c.041,0,.082.012.122.018.117.018.233.042.347.071l.111.029a3.82,3.82,0,0,1,.825.348c.042.024.082.05.123.075.086.054.168.108.25.17.044.032.088.063.13.1a3.906,3.906,0,0,1,.3.271c.038.039.074.082.111.122.062.068.123.137.181.21.04.05.078.1.116.155.054.078.108.159.157.241l.082.135a3.717,3.717,0,0,1,.186.4c.022.054.04.108.06.162.035.1.065.2.092.3.014.054.029.1.04.155a3.818,3.818,0,0,1,.069.443c0,.04,0,.08.006.119C96.616,252.758,96.619,252.883,96.614,253.009Z" transform="translate(-87.959 -248)" fill="#7a7a7a"/>
      </g>
    </g>
  </g>
</svg>
