<svg xmlns="http://www.w3.org/2000/svg" width="31.705" height="27.66" viewBox="0 0 31.705 27.66">
  <path id="sms" d="M24.882,31.26H6.823A6.907,6.907,0,0,0,0,38.232v6.906a6.907,6.907,0,0,0,6.823,6.972H18.237l8.3,6.809V51.9a6.945,6.945,0,0,0,5.17-6.762V38.232A6.907,6.907,0,0,0,24.882,31.26ZM7.3,44.664a4.367,4.367,0,0,1-1.994-.429l.341-1.376a3.747,3.747,0,0,0,1.654.467c.581,0,.821-.2.821-.518s-.19-.467-.909-.707c-1.275-.43-1.768-1.123-1.755-1.856,0-1.148.985-2.019,2.512-2.019a4.137,4.137,0,0,1,1.743.353l-.341,1.326a3.023,3.023,0,0,0-1.338-.354c-.467,0-.732.19-.732.505,0,.29.24.442,1,.707,1.174.4,1.666,1,1.679,1.906C9.977,43.818,9.069,44.664,7.3,44.664Zm13.166-.126H18.6V41.18c0-.9-.291-1.415-.909-1.415a.939.939,0,0,0-.883.67,1.607,1.607,0,0,0-.075.492v3.61H14.862V41.079c0-.783-.278-1.313-.884-1.313a.977.977,0,0,0-.9.695,1.275,1.275,0,0,0-.075.48v3.6H11.138v-4.2c0-.769-.025-1.426-.05-1.969H12.7l.088.833h.038a2.141,2.141,0,0,1,1.868-.971,1.749,1.749,0,0,1,1.691,1.047h.025a2.756,2.756,0,0,1,.8-.744,2.228,2.228,0,0,1,1.175-.3c1.186,0,2.083.833,2.083,2.675v3.636Zm3.166.126a4.367,4.367,0,0,1-1.994-.429l.341-1.376a3.747,3.747,0,0,0,1.654.467c.581,0,.821-.2.821-.518s-.19-.467-.909-.707c-1.275-.43-1.768-1.123-1.755-1.856,0-1.148.985-2.019,2.512-2.019a4.14,4.14,0,0,1,1.743.353L25.7,39.905a3.023,3.023,0,0,0-1.338-.354c-.467,0-.732.19-.732.505,0,.29.24.442,1,.707,1.174.4,1.666,1,1.679,1.906C26.309,43.818,25.4,44.664,23.633,44.664Z" transform="translate(0 -31.26)" fill="#495057"/>
</svg>
