<svg xmlns="http://www.w3.org/2000/svg" width="18.775" height="15.926" viewBox="0 0 18.775 15.926">
  <g id="group" transform="translate(0 -38.84)">
    <g id="Grupo_14" data-name="Grupo 14" transform="translate(14.613 47.438)">
      <g id="Grupo_13" data-name="Grupo 13" transform="translate(0 0)">
        <path id="Trazado_22" data-name="Trazado 22" d="M399.946,273.32h-1.452a3.777,3.777,0,0,1,.229,1.3v5.488a1.619,1.619,0,0,1-.093.542h2.4a1.628,1.628,0,0,0,1.626-1.626V276.03A2.713,2.713,0,0,0,399.946,273.32Z" transform="translate(-398.494 -273.32)" fill="#7a7a7a"/>
      </g>
    </g>
    <g id="Grupo_16" data-name="Grupo 16" transform="translate(0 47.438)">
      <g id="Grupo_15" data-name="Grupo 15">
        <path id="Trazado_23" data-name="Trazado 23" d="M3.933,274.619a3.777,3.777,0,0,1,.229-1.3H2.71A2.713,2.713,0,0,0,0,276.031v2.991a1.628,1.628,0,0,0,1.626,1.626h2.4a1.619,1.619,0,0,1-.093-.542Z" transform="translate(0 -273.321)" fill="#7a7a7a"/>
      </g>
    </g>
    <g id="Grupo_18" data-name="Grupo 18" transform="translate(5.017 46.026)">
      <g id="Grupo_17" data-name="Grupo 17">
        <path id="Trazado_24" data-name="Trazado 24" d="M142.859,234.815h-3.319a2.713,2.713,0,0,0-2.71,2.71v5.488a.542.542,0,0,0,.542.542h7.656a.542.542,0,0,0,.542-.542v-5.488A2.713,2.713,0,0,0,142.859,234.815Z" transform="translate(-136.829 -234.815)" fill="#7a7a7a"/>
      </g>
    </g>
    <g id="Grupo_20" data-name="Grupo 20" transform="translate(6.128 38.84)">
      <g id="Grupo_19" data-name="Grupo 19" transform="translate(0 0)">
        <path id="Trazado_25" data-name="Trazado 25" d="M170.373,38.84a3.259,3.259,0,1,0,3.259,3.259A3.263,3.263,0,0,0,170.373,38.84Z" transform="translate(-167.114 -38.84)" fill="#7a7a7a"/>
      </g>
    </g>
    <g id="Grupo_22" data-name="Grupo 22" transform="translate(1.226 41.878)">
      <g id="Grupo_21" data-name="Grupo 21">
        <path id="Trazado_26" data-name="Trazado 26" d="M35.881,121.689a2.436,2.436,0,1,0,2.438,2.438A2.44,2.44,0,0,0,35.881,121.689Z" transform="translate(-33.443 -121.689)" fill="#7a7a7a"/>
      </g>
    </g>
    <g id="Grupo_24" data-name="Grupo 24" transform="translate(12.673 41.878)">
      <g id="Grupo_23" data-name="Grupo 23">
        <path id="Trazado_27" data-name="Trazado 27" d="M348.045,121.689a2.438,2.438,0,1,0,2.438,2.438A2.44,2.44,0,0,0,348.045,121.689Z" transform="translate(-345.607 -121.689)" fill="#7a7a7a"/>
      </g>
    </g>
  </g>
</svg>
