<svg xmlns="http://www.w3.org/2000/svg" width="31.828" height="34.867" viewBox="0 0 31.828 34.867">
  <g id="Layer_x0020_1" transform="translate(-46.284 -25.965)">
    <g id="_533683360" transform="translate(48.959 28.792)">
      <path id="_533668528" d="M74.814,61.566h-22A3.816,3.816,0,0,1,49,57.756V37.206a.354.354,0,0,1,.708,0v20.55a3.108,3.108,0,0,0,3.1,3.1h22a3.108,3.108,0,0,0,3.1-3.1V32.71a3.108,3.108,0,0,0-3.1-3.1H57.306a.354.354,0,1,1,0-.708H74.814a3.823,3.823,0,0,1,3.818,3.818V57.763A3.815,3.815,0,0,1,74.814,61.566Z" transform="translate(-50.479 -30.526)" fill="#1f72ea" stroke="#1f72ea" stroke-width="2" fill-rule="evenodd"/>
      <path id="_533668456" d="M50.182,36.745h6.74V30.013Zm7.094.715h-7.96a.358.358,0,0,1-.256-.61L57.02,28.9a.346.346,0,0,1,.392-.075.353.353,0,0,1,.218.331v7.952A.354.354,0,0,1,57.276,37.46Z" transform="translate(-50.441 -30.427)" fill="#1f72ea" stroke="#1f72ea" stroke-width="2" fill-rule="evenodd"/>
      <path id="_533684104" d="M188.586,107.24h1.931V97.433a.318.318,0,0,1,.319-.319h1.87l-3.151-4.534L186.4,97.115h1.87a.318.318,0,0,1,.319.319Zm2.25.644h-2.568a.318.318,0,0,1-.319-.319V97.752h-2.162a.319.319,0,0,1-.264-.5l3.768-5.415a.313.313,0,0,1,.264-.136.33.33,0,0,1,.264.136l3.768,5.415a.325.325,0,0,1,.02.332.31.31,0,0,1-.285.169h-2.162v9.813A.329.329,0,0,1,190.836,107.883Z" transform="translate(-176.13 -87.434)" fill="#1f72ea" fill-rule="evenodd"/>
      <path id="_533684104_-_Contorno" data-name="_533684104 - Contorno" d="M190.836,108.133h-2.568a.569.569,0,0,1-.569-.569V98h-1.912a.571.571,0,0,1-.505-.3l0-.006a.575.575,0,0,1,.036-.583l3.771-5.419a.562.562,0,0,1,.47-.243.577.577,0,0,1,.464.236l.005.007,3.768,5.415a.577.577,0,0,1,.039.587.562.562,0,0,1-.508.308h-1.912v9.573A.577.577,0,0,1,190.836,108.133Zm-5.111-10.666a.073.073,0,0,0,.063.034H188.2v10.063c0,.038.03.069,2.637.069a.079.079,0,0,0,.075-.075V97.5a18.139,18.139,0,0,0,2.473-.031c.014-.029.013-.055-3.767-5.488a.186.186,0,0,0-.121-.005C185.714,97.414,185.712,97.44,185.725,97.467Zm5.043,10.022h-2.432c.007-10.095-.023-10.125-2.41-10.125l3.63-5.222,3.63,5.222C190.8,97.365,190.768,97.395,190.768,107.49Z" transform="translate(-176.13 -87.434)" fill="#1f72ea"/>
      <path id="_533684152" d="M143.382,355.805H128.018a.318.318,0,0,1-.319-.319v-2.568a.318.318,0,0,1,.319-.318h15.363a.318.318,0,0,1,.319.318v2.568A.318.318,0,0,1,143.382,355.805Z" transform="translate(-122.364 -330.653)" fill="#1f72ea" stroke="#1f72ea" stroke-width="0.5" fill-rule="evenodd"/>
    </g>
  </g>
</svg>
